<?xml version="1.0" encoding="UTF-8" standalone="no"?>
<!DOCTYPE svg PUBLIC "-//W3C//DTD SVG 1.1//EN" "http://www.w3.org/Graphics/SVG/1.1/DTD/svg11.dtd">
<svg width="100%" height="100%" viewBox="0 0 1024 1024" version="1.1" xmlns="http://www.w3.org/2000/svg" xmlns:xlink="http://www.w3.org/1999/xlink" xml:space="preserve" xmlns:serif="http://www.serif.com/" style="fill-rule:evenodd;clip-rule:evenodd;stroke-linejoin:round;stroke-miterlimit:2;">
    <g id="icon_solid1" serif:id="icon_solid" fill="#FFFFFF">
        <g transform="matrix(1.50731,0,0,0.30437,-234.537,724.521)">
            <path d="M703.413,-1354.63C707.025,-1372.46 711.917,-1382.47 717.017,-1382.47C722.252,-1382.47 728.139,-1382.47 728.139,-1382.47C738.483,-1382.47 748.394,-1362.77 755.708,-1327.92C763.159,-1292.43 767.315,-1244.22 767.315,-1194.03L767.315,-239.417C767.315,-187.183 763.125,-137.088 755.667,-100.152C754.955,-96.628 754.219,-93.251 753.461,-90.025C754.224,-86.781 754.965,-83.384 755.681,-79.838C763.139,-42.902 767.329,7.193 767.329,59.428L767.329,182.035C767.329,234.27 763.139,284.365 755.681,321.301C755.262,323.377 754.834,325.402 754.399,327.375C755.14,330.504 755.859,333.789 756.553,337.226C763.444,371.351 767.315,417.635 767.315,465.895C767.315,566.392 750.864,647.861 730.571,647.861L260.005,647.861C250.26,647.861 240.914,628.69 234.023,594.565C227.132,560.439 223.261,514.156 223.261,465.895C223.261,410.422 228.273,360.746 236.178,327.37C235.742,325.398 235.315,323.375 234.896,321.301C227.438,284.365 223.248,234.27 223.248,182.035L223.248,59.428C223.248,7.193 227.438,-42.902 234.896,-79.838C235.612,-83.383 236.353,-86.779 237.115,-90.022C236.357,-93.249 235.621,-96.627 234.909,-100.152C227.451,-137.088 223.261,-187.183 223.261,-239.417L223.261,-416.836C223.26,-417.292 223.26,-417.762 223.261,-418.245L223.261,-667.793C223.162,-671.537 223.15,-673.421 223.261,-676.325L223.261,-1194.03C223.261,-1244.22 227.417,-1292.43 234.868,-1327.92C242.182,-1362.77 252.093,-1382.47 262.437,-1382.47C262.437,-1382.47 444.956,-1382.47 493.274,-1382.47C495.963,-1382.47 498.488,-1376.06 500.058,-1365.25C501.628,-1354.44 502.051,-1340.55 501.196,-1327.92C492.239,-1195.78 470.113,-869.338 470.113,-869.338C466.923,-822.134 469.391,-770.055 476.49,-734.812C483.588,-699.569 494.098,-687.212 503.638,-702.893L599.228,-860.021C603.134,-866.441 606.685,-877.273 609.6,-891.66C609.6,-891.66 682.362,-1250.75 703.413,-1354.63ZM727.559,283.93C733.016,283.93 738.25,273.194 742.108,254.085C745.967,234.976 748.135,209.059 748.135,182.035L748.135,156.141L721.31,283.93L727.559,283.93ZM717.431,-42.466L691.116,-42.466L622.6,283.93L648.915,283.93L717.431,-42.466ZM420.115,-42.466L393.8,-42.466L325.285,283.93L351.6,283.93L420.115,-42.466ZM243.004,205.668C243.879,223.851 245.756,240.651 248.469,254.085C250.285,263.079 252.406,270.218 254.711,275.256L321.406,-42.466L295.091,-42.466L243.004,205.668ZM730.571,378.986L260.005,378.986C250.313,378.986 242.456,417.897 242.456,465.895C242.456,488.945 244.304,511.051 247.596,527.349C250.887,543.648 255.351,552.804 260.005,552.804L730.571,552.804C740.263,552.804 748.12,513.894 748.12,465.895C748.12,442.846 746.272,420.74 742.98,404.441C739.689,388.143 735.225,378.986 730.571,378.986ZM667.384,-42.466L642.849,-42.466L574.334,283.93L598.868,283.93L667.384,-42.466ZM619.117,-42.466L592.802,-42.466L524.286,283.93L550.601,283.93L619.117,-42.466ZM263.018,-42.466C257.561,-42.466 252.328,-31.731 248.469,-12.622C244.61,6.487 242.443,32.404 242.443,59.428L242.443,95.285L271.359,-42.466L263.031,-42.466L263.018,-42.466ZM747.903,44.188C747.25,22.804 745.234,2.857 742.108,-12.622C740.903,-18.589 739.565,-23.739 738.127,-28.001L672.647,283.93L697.578,283.93L747.903,44.188ZM242.456,-894.799L242.456,-705.888C291.482,-627.741 337.69,-473.476 414.544,-422.135C439.961,-405.155 463.222,-406.739 467.462,-407.028C481.036,-407.952 499.912,-412.797 528.376,-444.466C533.581,-450.258 548.967,-469.24 565.883,-496.467C624.545,-590.888 673.901,-713.91 728.735,-691.128C736.149,-688.047 742.671,-682.651 748.12,-676.85L748.12,-815.505C748.084,-815.506 748.047,-815.507 748.01,-815.509C695.372,-818.522 655.16,-746.133 614.326,-671.794C571.559,-593.938 528.147,-513.886 470.547,-505.894C361.946,-490.827 296.908,-706.32 242.456,-894.799ZM370.068,-42.466L345.138,-42.466L276.622,283.93L301.553,283.93L370.068,-42.466ZM469.569,-42.466L443.848,-42.466L375.332,283.93L401.053,283.93L469.569,-42.466ZM727.559,-137.523C733.011,-137.542 738.239,-148.275 742.094,-167.367C745.953,-186.476 748.12,-212.393 748.12,-239.417L748.12,-317.57C719.058,-433.657 682.802,-419.786 640.742,-370.71C639.817,-369.63 639.763,-368.633 638.926,-370.871C637.986,-373.384 637.999,-373.783 637.692,-378.856C637.413,-383.487 637.431,-383.73 637.893,-387.969C638.19,-390.692 638.801,-392.275 639.328,-393.944C639.572,-394.719 645.908,-405.498 646.483,-406.475C682.884,-468.401 716.448,-495.351 748.12,-421.746L748.12,-581.315C697.222,-658.638 648.601,-570.182 591.884,-480.752C562.78,-434.863 530.679,-388.644 497.396,-369.509C496.048,-368.734 475.956,-354.958 445.157,-358.048C386.893,-363.893 342.9,-431.119 309.461,-490.43C284.447,-534.799 263.43,-578.955 242.456,-609.118L242.456,-465.228C288.339,-453.364 325.431,-275.957 381.958,-259.667C383.814,-259.132 383.614,-256.451 384.299,-247.903C384.303,-247.86 383.602,-239.733 383.59,-239.672C383.161,-237.586 382.5,-237.101 381.924,-236.248C381.707,-235.927 377.949,-235.784 377.603,-235.771C322.979,-233.694 282.442,-382.249 242.456,-374.568L242.456,-239.417C242.456,-212.393 244.623,-186.476 248.482,-167.367C252.338,-148.274 257.566,-137.54 263.018,-137.523L263.031,-137.523L727.545,-137.523L727.559,-137.523ZM519.616,-42.466L493.301,-42.466L424.786,283.93L451.101,283.93L519.616,-42.466ZM569.07,-42.466L543.348,-42.466L474.833,283.93L500.554,283.93L569.07,-42.466Z"/>
        </g>
        <g transform="matrix(1.50731,0,0,0.30437,-234.537,724.521)">
            <path d="M593.873,-939.397L498.312,-782.319C494.862,-776.648 491.061,-781.117 488.494,-793.863C485.926,-806.608 485.034,-825.443 486.188,-842.515L518.108,-1314.76C518.564,-1321.53 519.336,-1327.89 520.423,-1333.28L520.435,-1333.33L557.53,-1516.4L543.479,-1516.4C538.182,-1516.4 533.882,-1537.7 533.882,-1563.93C533.882,-1590.16 538.182,-1611.46 543.479,-1611.46L576.791,-1611.46L716.628,-2301.57C737.952,-2406.8 772.455,-2406.66 793.742,-2301.24L793.744,-2301.23C803.998,-2250.45 809.753,-2181.55 809.741,-2109.74C809.728,-2037.92 803.949,-1969.08 793.677,-1918.38L731.485,-1611.46L755.565,-1611.46C760.862,-1611.46 765.162,-1590.16 765.162,-1563.93C765.162,-1537.7 760.862,-1516.4 755.565,-1516.4L712.223,-1516.4L597.636,-950.9L597.624,-950.842C596.533,-945.456 595.244,-941.642 593.873,-939.397ZM531.388,-1211.76L510.483,-902.481L573.067,-1005.36L531.388,-1211.76ZM716.554,-2167.01L705.076,-2110.36L755.143,-1862.41L766.622,-1919.06L716.554,-2167.01ZM691.48,-2043.26L540.794,-1299.61L590.862,-1051.66L741.547,-1795.31L691.48,-2043.26ZM780.218,-1986.16C786.824,-2019 790.538,-2063.45 790.546,-2109.82C790.554,-2156.4 786.822,-2201.08 780.171,-2234.01L780.169,-2234.02C766.369,-2302.36 744.001,-2302.46 730.178,-2234.24L730.151,-2234.1L780.218,-1986.16Z"/>
        </g>
        <g>
            <g transform="matrix(1.50731,0,0,0.30437,-234.537,724.521)">
                <path d="M527.872,-2115.87C536.126,-2115.87 542.817,-2082.74 542.817,-2041.86L542.817,-1977.32C542.817,-1936.45 536.126,-1903.32 527.872,-1903.32L421.032,-1903.32C412.779,-1903.32 406.088,-1936.45 406.088,-1977.32L406.088,-2041.86C406.088,-2082.74 412.779,-2115.87 421.032,-2115.87L527.872,-2115.87Z"/>
            </g>
            <g transform="matrix(1.50731,0,0,0.30437,-234.537,724.521)">
                <path d="M268.893,-1903.32L236.934,-1903.32C228.68,-1903.32 221.989,-1936.45 221.989,-1977.32L221.989,-2041.86C221.989,-2082.74 228.68,-2115.87 236.934,-2115.87L268.893,-2115.87L268.893,-2274.14C268.893,-2315.01 275.584,-2348.15 283.837,-2348.15L296.87,-2348.15C305.123,-2348.15 311.814,-2315.01 311.814,-2274.14L311.814,-2115.87L343.773,-2115.87C352.027,-2115.87 358.718,-2082.74 358.718,-2041.86L358.718,-1977.32C358.718,-1936.45 352.027,-1903.32 343.773,-1903.32L311.814,-1903.32L311.814,-1745.05C311.814,-1704.17 305.123,-1671.04 296.87,-1671.04L283.837,-1671.04C275.584,-1671.04 268.893,-1704.17 268.893,-1745.05L268.893,-1903.32Z"/>
            </g>
        </g>
        <g>
            <g transform="matrix(1.50731,0,0,0.30437,-234.537,724.521)">
                <path d="M803.766,-1362.14C806.312,-1362.14 808.752,-1357.14 810.552,-1348.23C812.351,-1339.31 813.362,-1327.23 813.362,-1314.62L813.362,-946.434C813.362,-933.83 812.351,-921.743 810.552,-912.831C808.752,-903.919 806.312,-898.912 803.766,-898.912L803.764,-898.912C801.219,-898.912 798.778,-903.919 796.978,-912.831C795.179,-921.743 794.168,-933.83 794.168,-946.434L794.168,-1314.62C794.168,-1327.23 795.179,-1339.31 796.978,-1348.23C798.778,-1357.14 801.219,-1362.14 803.764,-1362.14L803.766,-1362.14Z"/>
            </g>
            <g transform="matrix(1.50731,0,0,0.30437,-234.537,724.521)">
                <path d="M803.766,-776.246C809.066,-776.246 813.362,-754.97 813.362,-728.724L813.362,-594.894C813.362,-568.649 809.066,-547.373 803.766,-547.373L803.764,-547.373C798.464,-547.373 794.168,-568.649 794.168,-594.894L794.168,-728.724C794.168,-754.97 798.464,-776.246 803.764,-776.246L803.766,-776.246Z"/>
            </g>
            <g transform="matrix(1.50731,0,0,0.30437,-234.537,724.521)">
                <path d="M803.766,627.682L803.764,627.682C801.219,627.682 798.778,622.675 796.978,613.763C795.179,604.851 794.168,592.764 794.168,580.16L794.168,211.971C794.168,199.367 795.179,187.28 796.978,178.368C798.778,169.456 801.219,164.449 803.764,164.449L803.766,164.449C806.312,164.449 808.752,169.456 810.552,178.368C812.351,187.28 813.362,199.367 813.362,211.971L813.362,580.16C813.362,592.764 812.351,604.851 810.552,613.763C808.752,622.675 806.312,627.682 803.766,627.682Z"/>
            </g>
            <g transform="matrix(1.50731,0,0,0.30437,-234.537,724.521)">
                <path d="M803.766,41.783L803.764,41.783C798.464,41.783 794.168,20.507 794.168,-5.738L794.168,-139.568C794.168,-165.814 798.464,-187.09 803.764,-187.09L803.766,-187.09C809.066,-187.09 813.362,-165.814 813.362,-139.568L813.362,-5.738C813.362,20.507 809.066,41.783 803.766,41.783Z"/>
            </g>
            <g transform="matrix(1.50731,0,0,0.30437,-234.537,724.521)">
                <path d="M186.793,-1362.14C189.338,-1362.14 191.778,-1357.14 193.578,-1348.23C195.378,-1339.31 196.389,-1327.23 196.389,-1314.62L196.389,-946.434C196.389,-933.83 195.378,-921.743 193.578,-912.831C191.778,-903.919 189.338,-898.912 186.793,-898.912L186.79,-898.912C184.245,-898.912 181.804,-903.919 180.004,-912.831C178.205,-921.743 177.194,-933.83 177.194,-946.434L177.194,-1314.62C177.194,-1327.23 178.205,-1339.31 180.004,-1348.23C181.804,-1357.14 184.245,-1362.14 186.79,-1362.14L186.793,-1362.14Z"/>
            </g>
            <g transform="matrix(1.50731,0,0,0.30437,-234.537,724.521)">
                <path d="M186.793,-776.246C192.092,-776.246 196.389,-754.97 196.389,-728.724L196.389,-594.894C196.389,-568.649 192.092,-547.373 186.793,-547.373L186.79,-547.373C181.49,-547.373 177.194,-568.649 177.194,-594.894L177.194,-728.724C177.194,-754.97 181.49,-776.246 186.79,-776.246L186.793,-776.246Z"/>
            </g>
            <g transform="matrix(1.50731,0,0,0.30437,-234.537,724.521)">
                <path d="M186.793,627.682L186.79,627.682C184.245,627.682 181.804,622.675 180.004,613.763C178.205,604.851 177.194,592.764 177.194,580.16L177.194,211.971C177.194,199.367 178.205,187.28 180.004,178.368C181.804,169.456 184.245,164.449 186.79,164.449L186.793,164.449C189.338,164.449 191.778,169.456 193.578,178.368C195.378,187.28 196.389,199.367 196.389,211.971L196.389,580.16C196.389,592.764 195.378,604.851 193.578,613.763C191.778,622.675 189.338,627.682 186.793,627.682Z"/>
            </g>
            <g transform="matrix(1.50731,0,0,0.30437,-234.537,724.521)">
                <path d="M186.793,41.783L186.79,41.783C181.49,41.783 177.194,20.507 177.194,-5.738L177.194,-139.568C177.194,-165.814 181.49,-187.09 186.79,-187.09L186.793,-187.09C192.092,-187.09 196.389,-165.814 196.389,-139.568L196.389,-5.738C196.389,20.507 192.092,41.783 186.793,41.783Z"/>
            </g>
            <g transform="matrix(1.50731,0,0,0.30437,-234.537,724.521)">
                <path d="M186.791,-1718.57C204.006,-1718.57 217.983,-1649.35 217.983,-1564.1C217.983,-1478.85 204.006,-1409.63 186.791,-1409.63C169.576,-1409.63 155.6,-1478.85 155.6,-1564.1C155.6,-1649.35 169.576,-1718.57 186.791,-1718.57ZM186.791,-1623.51C180.17,-1623.51 174.795,-1596.89 174.795,-1564.1C174.795,-1531.31 180.17,-1504.69 186.791,-1504.69C193.412,-1504.69 198.788,-1531.31 198.788,-1564.1C198.788,-1596.89 193.412,-1623.51 186.791,-1623.51Z"/>
            </g>
            <g transform="matrix(1.50731,0,0,0.30437,-234.537,724.521)">
                <path d="M803.765,-1718.57C820.98,-1718.57 834.957,-1649.35 834.957,-1564.1C834.957,-1478.85 820.98,-1409.63 803.765,-1409.63C786.55,-1409.63 772.574,-1478.85 772.574,-1564.1C772.574,-1649.35 786.55,-1718.57 803.765,-1718.57ZM803.765,-1623.51C797.144,-1623.51 791.768,-1596.89 791.768,-1564.1C791.768,-1531.31 797.144,-1504.69 803.765,-1504.69C810.386,-1504.69 815.762,-1531.31 815.762,-1564.1C815.762,-1596.89 810.386,-1623.51 803.765,-1623.51Z"/>
            </g>
            <g transform="matrix(1.50731,0,0,0.30437,-234.537,724.521)">
                <path d="M803.765,-496.322C818.142,-496.322 829.815,-438.516 829.815,-367.316C829.815,-296.116 818.142,-238.311 803.765,-238.311C789.388,-238.311 777.715,-296.116 777.715,-367.316C777.715,-438.516 789.388,-496.322 803.765,-496.322ZM803.765,-401.265C799.982,-401.265 796.91,-386.053 796.91,-367.316C796.91,-348.579 799.982,-333.367 803.765,-333.367C807.549,-333.367 810.62,-348.579 810.62,-367.316C810.62,-386.053 807.549,-401.265 803.765,-401.265Z"/>
            </g>
            <g transform="matrix(1.50731,0,0,0.30437,-234.537,724.521)">
                <path d="M186.791,-496.322C201.169,-496.322 212.841,-438.516 212.841,-367.316C212.841,-296.116 201.169,-238.311 186.791,-238.311C172.414,-238.311 160.741,-296.116 160.741,-367.316C160.741,-438.516 172.414,-496.322 186.791,-496.322ZM186.791,-401.265C183.008,-401.265 179.936,-386.053 179.936,-367.316C179.936,-348.579 183.008,-333.367 186.791,-333.367C190.575,-333.367 193.647,-348.579 193.647,-367.316C193.647,-386.053 190.575,-401.265 186.791,-401.265Z"/>
            </g>
            <g transform="matrix(1.50731,0,0,0.30437,-234.537,724.521)">
                <path d="M186.791,674.998C204.006,674.998 217.983,744.213 217.983,829.465C217.983,914.718 204.006,983.933 186.791,983.933C169.576,983.933 155.6,914.718 155.6,829.465C155.6,744.213 169.576,674.998 186.791,674.998ZM186.791,770.055C180.17,770.055 174.795,796.676 174.795,829.465C174.795,862.255 180.17,888.876 186.791,888.876C193.412,888.876 198.788,862.255 198.788,829.465C198.788,796.676 193.412,770.055 186.791,770.055Z"/>
            </g>
            <g transform="matrix(1.50731,0,0,0.30437,-234.537,724.521)">
                <path d="M803.765,674.998C820.98,674.998 834.957,744.213 834.957,829.465C834.957,914.718 820.98,983.933 803.765,983.933C786.55,983.933 772.574,914.718 772.574,829.465C772.574,744.213 786.55,674.998 803.765,674.998ZM803.765,770.055C797.144,770.055 791.768,796.676 791.768,829.465C791.768,862.255 797.144,888.876 803.765,888.876C810.386,888.876 815.762,862.255 815.762,829.465C815.762,796.676 810.386,770.055 803.765,770.055Z"/>
            </g>
            <g transform="matrix(1.50731,0,0,0.30437,-234.537,724.521)">
                <path d="M495.288,700.46C509.665,700.46 521.338,758.265 521.338,829.465C521.338,900.665 509.665,958.471 495.288,958.471C480.911,958.471 469.238,900.665 469.238,829.465C469.238,758.265 480.911,700.46 495.288,700.46ZM495.288,795.516C491.504,795.516 488.433,810.728 488.433,829.465C488.433,848.202 491.504,863.414 495.288,863.414C499.072,863.414 502.143,848.202 502.143,829.465C502.143,810.728 499.072,795.516 495.288,795.516Z"/>
            </g>
            <g transform="matrix(1.50731,0,0,0.30437,-234.537,724.521)">
                <path d="M495.288,-1693.1C509.665,-1693.1 521.338,-1635.3 521.338,-1564.1C521.338,-1492.9 509.665,-1435.09 495.288,-1435.09C480.911,-1435.09 469.238,-1492.9 469.238,-1564.1C469.238,-1635.3 480.911,-1693.1 495.288,-1693.1ZM495.288,-1598.05C491.504,-1598.05 488.433,-1582.84 488.433,-1564.1C488.433,-1545.36 491.504,-1530.15 495.288,-1530.15C499.072,-1530.15 502.143,-1545.36 502.143,-1564.1C502.143,-1582.84 499.072,-1598.05 495.288,-1598.05Z"/>
            </g>
            <g transform="matrix(1.50731,0,0,0.30437,-234.537,724.521)">
                <path d="M447.077,781.937C452.374,781.937 456.674,803.234 456.674,829.465C456.674,855.697 452.374,876.994 447.077,876.994L389.236,876.994C383.939,876.994 379.638,855.697 379.638,829.465C379.638,803.234 383.939,781.937 389.236,781.937L447.077,781.937Z"/>
            </g>
            <g transform="matrix(1.50731,0,0,0.30437,-234.537,724.521)">
                <path d="M350.674,781.937C355.971,781.937 360.272,803.234 360.272,829.465C360.272,855.697 355.971,876.994 350.674,876.994L331.394,876.994C326.097,876.994 321.796,855.697 321.796,829.465C321.796,803.234 326.097,781.937 331.394,781.937L350.674,781.937Z"/>
            </g>
            <g transform="matrix(1.50731,0,0,0.30437,-234.537,724.521)">
                <path d="M292.833,781.937C298.13,781.937 302.43,803.234 302.43,829.465C302.43,855.697 298.13,876.994 292.833,876.994L234.992,876.994C229.695,876.994 225.394,855.697 225.394,829.465C225.394,803.234 229.695,781.937 234.992,781.937L292.833,781.937Z"/>
            </g>
            <g transform="matrix(1.50731,0,0,0.30437,-234.537,724.521)">
                <path d="M234.993,-1516.4C229.696,-1516.4 225.395,-1537.7 225.395,-1563.93C225.395,-1590.16 229.696,-1611.46 234.993,-1611.46L292.834,-1611.46C298.131,-1611.46 302.432,-1590.16 302.432,-1563.93C302.432,-1537.7 298.131,-1516.4 292.834,-1516.4L234.993,-1516.4Z"/>
            </g>
            <g transform="matrix(1.50731,0,0,0.30437,-234.537,724.521)">
                <path d="M331.395,-1516.4C326.098,-1516.4 321.797,-1537.7 321.797,-1563.93C321.797,-1590.16 326.098,-1611.46 331.395,-1611.46L350.675,-1611.46C355.972,-1611.46 360.273,-1590.16 360.273,-1563.93C360.273,-1537.7 355.972,-1516.4 350.675,-1516.4L331.395,-1516.4Z"/>
            </g>
            <g transform="matrix(1.50731,0,0,0.30437,-234.537,724.521)">
                <path d="M389.236,-1516.4C383.939,-1516.4 379.639,-1537.7 379.639,-1563.93C379.639,-1590.16 383.939,-1611.46 389.236,-1611.46L447.077,-1611.46C452.374,-1611.46 456.674,-1590.16 456.674,-1563.93C456.674,-1537.7 452.374,-1516.4 447.077,-1516.4L389.236,-1516.4Z"/>
            </g>
            <g transform="matrix(1.50731,0,0,0.30437,-234.537,724.521)">
                <path d="M755.564,781.937C760.86,781.937 765.161,803.234 765.161,829.465C765.161,855.697 760.86,876.994 755.564,876.994L697.722,876.994C692.425,876.994 688.125,855.697 688.125,829.465C688.125,803.234 692.425,781.937 697.722,781.937L755.564,781.937Z"/>
            </g>
            <g transform="matrix(1.50731,0,0,0.30437,-234.537,724.521)">
                <path d="M659.162,781.937C664.459,781.937 668.759,803.234 668.759,829.465C668.759,855.697 664.459,876.994 659.162,876.994L639.881,876.994C634.584,876.994 630.284,855.697 630.284,829.465C630.284,803.234 634.584,781.937 639.881,781.937L659.162,781.937Z"/>
            </g>
            <g transform="matrix(1.50731,0,0,0.30437,-234.537,724.521)">
                <path d="M601.32,781.937C606.617,781.937 610.917,803.234 610.917,829.465C610.917,855.697 606.617,876.994 601.32,876.994L543.479,876.994C538.182,876.994 533.882,855.697 533.882,829.465C533.882,803.234 538.182,781.937 543.479,781.937L601.32,781.937Z"/>
            </g>
        </g>
    </g>
</svg>
